# xmcd CD database file
#
# Track frame offsets:
#	150
#	13150
#	24826
#	35033
#	46277
#	61321
#	70404
#	81310
#	94643
#	106095
#	123634
#	139130
#
# Disc length: 2024 seconds
#
# Revision: 0
# Processed by: cddbd v1.5.2PL0 Copyright (c) Steve Scherf et al.
# Submitted via: CDex 1.51
#
DISCID=a007e60c
DTITLE=The Jai and Kai Trombone Octet - Jay and Kai and 6
DYEAR=1956
DGENRE=Jazz
TTITLE0=Night in Tunisia
TTITLE1=Piece For Two Tromboniums
TTITLE2=Rise 'N' Shine
TTITLE3=All at Once you Love Her
TTITLE4=No Moon at all
TTITLE5=The Surrey with the Fringe on Top
TTITLE6=The Peanut Vendor
TTITLE7=You're My Thrill
TTITLE8=Jeanne
TTITLE9=Four Plus Four
TTITLE10=You Don't know what Love is
TTITLE11=The Continental
EXTD=YEAR: 1956
EXTT0=
EXTT1=
EXTT2=
EXTT3=
EXTT4=
EXTT5=
EXTT6=
EXTT7=
EXTT8=
EXTT9=
EXTT10=
EXTT11=
PLAYORDER=
